<svg xmlns="http://www.w3.org/2000/svg" xmlns:xlink="http://www.w3.org/1999/xlink" viewBox="0 0 1167.002 966.995"><defs><style>.cls-1{fill:url(#linear-gradient)}.cls-2{fill:url(#linear-gradient-2)}.cls-3{fill:url(#linear-gradient-3)}.cls-4{fill:url(#linear-gradient-4)}.cls-5{fill:url(#linear-gradient-5)}.cls-6{fill:url(#linear-gradient-6)}.cls-7{fill:url(#linear-gradient-7)}.cls-8{fill:url(#linear-gradient-8)}.cls-9{fill:url(#linear-gradient-9)}.cls-10{fill:url(#linear-gradient-10)}.cls-11{fill:url(#linear-gradient-11)}.cls-12{fill:url(#linear-gradient-12)}.cls-13{fill:url(#linear-gradient-13)}.cls-14{fill:url(#linear-gradient-14)}.cls-15{fill:url(#linear-gradient-15)}.cls-16{fill:url(#linear-gradient-16)}.cls-17{fill:url(#linear-gradient-17)}.cls-18{fill:url(#linear-gradient-18)}.cls-19{fill:url(#linear-gradient-19)}.cls-20{fill:none}.cls-21{isolation:isolate}.cls-22{fill:url(#radial-gradient)}.cls-23{clip-path:url(#clip-path)}.cls-24{mix-blend-mode:screen}.cls-25{clip-path:url(#clip-path-2)}.cls-26{clip-path:url(#clip-path-3)}.cls-27{clip-path:url(#clip-path-4)}.cls-28{mask:url(#mask)}.cls-29{fill:url(#linear-gradient-20)}.cls-30{clip-path:url(#clip-path-5)}.cls-31{clip-path:url(#clip-path-6)}.cls-32{mask:url(#mask-2)}.cls-33{fill:url(#linear-gradient-21)}.cls-34{clip-path:url(#clip-path-7)}.cls-35{clip-path:url(#clip-path-8)}.cls-36{mask:url(#mask-3)}.cls-37{fill:url(#linear-gradient-22)}.cls-38{clip-path:url(#clip-path-9)}.cls-39{clip-path:url(#clip-path-10)}.cls-40{mask:url(#mask-4)}.cls-41{fill:url(#linear-gradient-23)}.cls-42{clip-path:url(#clip-path-11)}.cls-43{clip-path:url(#clip-path-12)}.cls-44{mask:url(#mask-5)}.cls-45{fill:url(#linear-gradient-24)}.cls-46{clip-path:url(#clip-path-13)}.cls-47{clip-path:url(#clip-path-14)}.cls-48{mask:url(#mask-6)}.cls-49{fill:url(#linear-gradient-25)}.cls-50{clip-path:url(#clip-path-15)}.cls-51{clip-path:url(#clip-path-16)}.cls-52{mask:url(#mask-7)}.cls-53{fill:url(#linear-gradient-26)}.cls-54{clip-path:url(#clip-path-17)}.cls-55{clip-path:url(#clip-path-18)}.cls-56{mask:url(#mask-8)}.cls-57{fill:url(#linear-gradient-27)}.cls-58{clip-path:url(#clip-path-19)}.cls-59{clip-path:url(#clip-path-20)}.cls-60{mask:url(#mask-9)}.cls-61{fill:url(#linear-gradient-28)}.cls-62{clip-path:url(#clip-path-21)}.cls-63{clip-path:url(#clip-path-22)}.cls-64{mask:url(#mask-10)}.cls-65{fill:url(#linear-gradient-29)}.cls-66{clip-path:url(#clip-path-23)}.cls-67{clip-path:url(#clip-path-24)}.cls-68{mask:url(#mask-11)}.cls-69{fill:url(#linear-gradient-30)}.cls-70{clip-path:url(#clip-path-25)}.cls-71{clip-path:url(#clip-path-26)}.cls-72{mask:url(#mask-12)}.cls-73{fill:url(#linear-gradient-31)}.cls-74{clip-path:url(#clip-path-27)}.cls-75{clip-path:url(#clip-path-28)}.cls-76{mask:url(#mask-13)}.cls-77{fill:url(#linear-gradient-32)}.cls-78{clip-path:url(#clip-path-29)}.cls-79{clip-path:url(#clip-path-30)}.cls-80{mask:url(#mask-14)}.cls-81{fill:url(#linear-gradient-33)}.cls-82{clip-path:url(#clip-path-31)}.cls-83{clip-path:url(#clip-path-32)}.cls-84{mask:url(#mask-15)}.cls-85{fill:url(#linear-gradient-34)}.cls-86{clip-path:url(#clip-path-33)}.cls-87{clip-path:url(#clip-path-34)}.cls-88{mask:url(#mask-16)}.cls-89{fill:url(#linear-gradient-35)}.cls-90{clip-path:url(#clip-path-35)}.cls-91{clip-path:url(#clip-path-36)}.cls-92{mask:url(#mask-17)}.cls-93{fill:url(#linear-gradient-36)}.cls-94{clip-path:url(#clip-path-37)}.cls-95{clip-path:url(#clip-path-38)}.cls-96{mask:url(#mask-18)}.cls-97{fill:url(#linear-gradient-37)}.cls-98{clip-path:url(#clip-path-39)}.cls-99{clip-path:url(#clip-path-40)}.cls-100{mask:url(#mask-19)}.cls-101{fill:url(#linear-gradient-38)}.cls-103{clip-path:url(#clip-path-41)}.cls-104{fill:url(#radial-gradient-2)}.cls-105{clip-path:url(#clip-path-42)}.cls-106{fill:url(#radial-gradient-3)}.cls-110{opacity:.3}.cls-111,.cls-112,.cls-113,.cls-114,.cls-115,.cls-116,.cls-117,.cls-118,.cls-119,.cls-120,.cls-121{fill-rule:evenodd}.cls-112{fill:#e0e0f0}.cls-113{fill:#9596ca}.cls-114{fill:#1d2949}.cls-115{fill:#2a317d}.cls-116{fill:#20b4e8}.cls-117{fill:#252667}.cls-118{fill:#243e8f}.cls-119{fill:#fff}.cls-120{fill:#50c7eb}.cls-121{fill:#1897d4}.cls-122{clip-path:url(#clip-path-45)}.cls-123{fill:#3d1d55}.cls-124{fill:#27aae1}.cls-125{fill:#f91974}.cls-126{fill:#e38536}</style><linearGradient id="linear-gradient" x1="-479.528" x2="-478.821" y1="1043.481" y2="1043.481" gradientTransform="matrix(0, 4.64222, 6.24825, 0, -5994.62202, 2448.60783)" gradientUnits="userSpaceOnUse"><stop offset="0"/><stop offset=".006"/><stop offset=".181" stop-color="#030303"/><stop offset=".312" stop-color="#0d0d0d"/><stop offset=".428" stop-color="#1d1d1d"/><stop offset=".537" stop-color="#343434"/><stop offset=".64" stop-color="#515151"/><stop offset=".738" stop-color="#757575"/><stop offset=".833" stop-color="#a0a0a0"/><stop offset=".923" stop-color="#d1d1d1"/><stop offset=".998" stop-color="#fff"/><stop offset="1" stop-color="#fff"/></linearGradient><linearGradient id="linear-gradient-2" x1="-479.528" x2="-478.821" y1="1085.813" y2="1085.813" gradientTransform="matrix(0, 4.64222, 6.24825, 0, -6261.34387, 3088.60646)" xlink:href="#linear-gradient"/><linearGradient id="linear-gradient-3" x1="-461.647" x2="-460.94" y1="1045.43" y2="1045.43" gradientTransform="matrix(0, 52.00985, 70.00333, 0.00002, -72540.59447, 24928.92179)" xlink:href="#linear-gradient"/><linearGradient id="linear-gradient-4" x1="-458.811" x2="-458.103" y1="1040.832" y2="1040.832" gradientTransform="matrix(-131.27588, -138.20607, -102.95858, 176.98166, 47243.57671, -247298.30814)" xlink:href="#linear-gradient"/><linearGradient id="linear-gradient-5" x1="-459.009" x2="-458.302" y1="1040.424" y2="1040.424" gradientTransform="matrix(-165.33029, -31.23663, -23.55501, 222.5928, -51123.90032, -245436.64966)" xlink:href="#linear-gradient"/><linearGradient id="linear-gradient-6" x1="-460.529" x2="-459.821" y1="1041.668" y2="1041.668" gradientTransform="matrix(165.33314, 31.23717, 23.55542, -222.59663, 52470.15414, 246921.82201)" xlink:href="#linear-gradient"/><linearGradient id="linear-gradient-7" x1="-459.953" x2="-459.246" y1="1041.829" y2="1041.829" gradientTransform="matrix(154.90615, -84.22104, -62.24846, -208.31995, 136876.3538, 178703.02754)" xlink:href="#linear-gradient"/><linearGradient id="linear-gradient-8" x1="-459.834" x2="-459.126" y1="1040.143" y2="1040.143" gradientTransform="matrix(-102.88895, 176.86195, 131.18708, 138.1126, -183407.73187, -61501.02307)" xlink:href="#linear-gradient"/><linearGradient id="linear-gradient-9" x1="-459.56" x2="-458.853" y1="1041.896" y2="1041.896" gradientTransform="matrix(102.88818, -176.86066, -131.18612, -138.11157, 184682.98472, 62865.63063)" xlink:href="#linear-gradient"/><linearGradient id="linear-gradient-10" x1="-460.053" x2="-459.345" y1="1040.322" y2="1040.322" gradientTransform="matrix(-23.49277, 222.00466, 164.89345, 31.1541, -181848.77681, 70525.73935)" xlink:href="#linear-gradient"/><linearGradient id="linear-gradient-11" x1="-465.653" x2="-464.945" y1="1040.126" y2="1040.126" gradientTransform="matrix(0, 16.63337, 22.38789, 0.00001, -22718.42269, 7877.96829)" xlink:href="#linear-gradient"/><linearGradient id="linear-gradient-12" x1="-459.707" x2="-458.999" y1="1042.156" y2="1042.156" gradientTransform="matrix(0, 176.50912, 237.57471, 0.00006, -246933.76127, 81931.14217)" xlink:href="#linear-gradient"/><linearGradient id="linear-gradient-13" x1="-458.867" x2="-458.159" y1="1040.872" y2="1040.872" gradientTransform="matrix(-350.38042, -274.24764, -204.4934, 472.17226, 52417.13757, -616895.22298)" xlink:href="#linear-gradient"/><linearGradient id="linear-gradient-14" x1="-459.555" x2="-458.848" y1="1041.101" y2="1041.101" gradientTransform="matrix(350.37826, 274.24595, 204.49215, -472.16935, -51165.48567, 618278.43209)" xlink:href="#linear-gradient"/><linearGradient id="linear-gradient-15" x1="-458.939" x2="-458.231" y1="1040.73" y2="1040.73" gradientTransform="matrix(0, -405.97238, -546.42371, -0.00015, 568887.57722, -185629.47636)" xlink:href="#linear-gradient"/><linearGradient id="linear-gradient-16" x1="-459.38" x2="-458.672" y1="1041.27" y2="1041.27" gradientTransform="matrix(0, 405.97238, 546.42371, 0.00015, -568165.06769, 186895.34468)" xlink:href="#linear-gradient"/><linearGradient id="linear-gradient-17" x1="-459.088" x2="-458.381" y1="1042.156" y2="1042.156" gradientTransform="matrix(0, 176.51075, 237.5769, 0.00006, -247201.97223, 81823.58873)" xlink:href="#linear-gradient"/><linearGradient id="linear-gradient-18" x1="-459.715" x2="-459.008" y1="1041.089" y2="1041.089" gradientTransform="matrix(0, 174.44799, 234.8005, 0.00006, -243790.74206, 80371.05584)" xlink:href="#linear-gradient"/><linearGradient id="linear-gradient-19" x1="-459.664" x2="-458.957" y1="1040.834" y2="1040.834" gradientTransform="matrix(0, 55.26375, 74.38295, 0.00002, -77019.6123, 25540.11435)" xlink:href="#linear-gradient"/><radialGradient id="radial-gradient" cx="110.284" cy="561.513" r="645.799" gradientTransform="translate(1023.33332 1007.20499) rotate(-174.25132)" gradientUnits="userSpaceOnUse"><stop offset="0" stop-color="#fbb120"/><stop offset=".005" stop-color="#fbb120"/><stop offset=".546" stop-color="#ef2e79"/><stop offset=".692" stop-color="#c32285"/><stop offset="1" stop-color="#5d05a1"/></radialGradient><clipPath id="clip-path" transform="translate(71.43508 -43.49924)"><rect id="SVGID" width="783.401" height="1034.734" x="72.299" y="-37.867" class="cls-20" transform="translate(-17.11245 941.82787) rotate(-89.80053)"/></clipPath><clipPath id="clip-path-2" transform="translate(71.43508 -43.49924)"><rect id="SVGID-2" width="897.961" height="918.938" x="75.532" y="85.617" class="cls-20" data-name="SVGID" transform="translate(-22.39606 1067.69841) rotate(-89.80053)"/></clipPath><clipPath id="clip-path-3" transform="translate(71.43508 -43.49924)"><rect id="SVGID-3" width="256.132" height="3.144" x="397.245" y="222.677" class="cls-20" data-name="SVGID" transform="translate(299.23483 748.77617) rotate(-89.80053)"/></clipPath><clipPath id="clip-path-4" transform="translate(71.43508 -43.49924)"><path id="SVGID-4" d="M524.86528,352.31428l-.68776-254.0017c-.00345-1.168.69787-2.1212,1.56631-2.1283.86848-.00628,1.57514.93567,1.578,2.10371l-.00008.02459-.00008.02366Z" class="cls-20" data-name="SVGID"/></clipPath><mask id="mask" width="4.044" height="256.15" x="594.721" y="52.67" maskUnits="userSpaceOnUse"><g transform="translate(71.43508 -43.49924)"><rect width="256.141" height="3.152" x="397.237" y="222.669" class="cls-1" transform="translate(299.23548 748.76817) rotate(-89.80053)"/></g></mask><linearGradient id="linear-gradient-20" x1="-479.528" x2="-478.821" y1="1043.481" y2="1043.481" gradientTransform="matrix(0, 4.64222, 6.24825, 0, -5994.62157, 2448.60768)" gradientUnits="userSpaceOnUse"><stop offset="0"/><stop offset=".006"/><stop offset=".181" stop-color="#030303"/><stop offset=".311" stop-color="#0d0d0d"/><stop offset=".428" stop-color="#1d1d1d"/><stop offset=".537" stop-color="#343434"/><stop offset=".639" stop-color="#515151"/><stop offset=".738" stop-color="#757575"/><stop offset=".833" stop-color="#a1a1a1"/><stop offset=".924" stop-color="#d1d1d1"/><stop offset=".998" stop-color="#fff"/><stop offset="1" stop-color="#fff"/></linearGradient><clipPath id="clip-path-5" transform="translate(71.43508 -43.49924)"><rect id="SVGID-5" width="259.495" height="3.144" x="393.335" y="862.674" class="cls-20" data-name="SVGID" transform="translate(-342.97878 1384.31687) rotate(-89.80053)"/></clipPath><clipPath id="clip-path-6" transform="translate(71.43508 -43.49924)"><path id="SVGID-6" d="M523.53464,734.499l.67609,257.35337,0,.01185c.00349,1.16889-.69849,2.122-1.56692,2.12831-.86845.00714-1.57449-.93567-1.57737-2.10455l.00012-.0347Z" class="cls-20" data-name="SVGID"/></clipPath><mask id="mask-2" width="4.055" height="259.515" x="592.494" y="690.994" maskUnits="userSpaceOnUse"><g transform="translate(71.43508 -43.49924)"><rect width="259.505" height="3.152" x="393.334" y="862.675" class="cls-2" transform="translate(-342.9799 1384.32564) rotate(-89.80053)"/></g></mask><linearGradient id="linear-gradient-21" x1="-479.528" x2="-478.821" y1="1085.813" y2="1085.813" gradientTransform="matrix(0, 4.64222, 6.24825, 0, -6261.34335, 3088.60625)" xlink:href="#linear-gradient-20"/><clipPath id="clip-path-7" transform="translate(71.43508 -43.49924)"><rect id="SVGID-7" width="285.166" height="123.328" x="513.399" y="790.279" class="cls-20" data-name="SVGID" transform="translate(-198.23956 1504.95552) rotate(-89.80053)"/></clipPath><clipPath id="clip-path-8" transform="translate(71.43508 -43.49924)"><path id="SVGID-8" d="M594.814,709.14623c9.58176,23.98721,19.90811,47.40485,30.33171,70.73734l15.61288,35.02662,3.86632,8.79482,3.80578,8.83269,7.61162,17.6654,60.89225,141.32147.01249.02882a2.55672,2.55672,0,0,1-.5729,2.89353,1.37341,1.37341,0,0,1-2.148-.76415l-.01-.02374L654.67972,851.26228l-7.44136-17.79939-3.72133-8.89927-3.77556-8.84783L624.46911,780.4246c-10.199-23.51621-20.30472-47.12609-29.65508-71.27837" class="cls-20" data-name="SVGID"/></clipPath><mask id="mask-3" width="124.547" height="285.895" x="665.255" y="665.647" maskUnits="userSpaceOnUse"><g transform="translate(71.43508 -43.49924)"><rect width="285.467" height="123.554" x="513.36" y="790.317" class="cls-12" transform="translate(-198.27905 1505.2169) rotate(-89.80053)"/></g></mask><linearGradient id="linear-gradient-22" x1="-459.707" x2="-458.999" y1="1042.156" y2="1042.156" gradientTransform="matrix(0, 176.50912, 237.57471, 0.00006, -246933.76127, 81931.14217)" xlink:href="#linear-gradient-20"/><clipPath id="clip-path-9" transform="translate(71.43508 -43.49924)"><rect id="SVGID-9" width="192.778" height="247.625" x="122.32" y="197.21" class="cls-20" data-name="SVGID" transform="translate(-103.07251 538.61277) rotate(-89.80053)"/></clipPath><clipPath id="clip-path-10" transform="translate(71.43508 -43.49924)"><path id="SVGID-10" d="M342.18531,417.842,96.01565,228.16156a2.54546,2.54546,0,0,1-.57979-2.88738c.43239-1.01506,1.39322-1.36718,2.14582-.78649l.015.01106Z" class="cls-20" data-name="SVGID"/></clipPath><mask id="mask-4" width="372.416" height="482.413" x="103.825" y="36.166" maskUnits="userSpaceOnUse"><g transform="translate(71.43508 -43.49924)"><polygon points="279.718 562.078 32.39 368.491 157.478 79.665 404.806 273.252 279.718 562.078" class="cls-13"/></g></mask><linearGradient id="linear-gradient-23" x1="-458.867" x2="-458.159" y1="1040.872" y2="1040.872" gradientTransform="matrix(-350.38042, -274.24764, -204.4934, 472.17226, 52488.57265, -616938.72222)" xlink:href="#linear-gradient-20"/><clipPath id="clip-path-11" transform="translate(71.43508 -43.49924)"><rect id="SVGID-11" width="192.777" height="247.623" x="741.761" y="645.326" class="cls-20" data-name="SVGID" transform="translate(66.09901 1604.60522) rotate(-89.80053)"/></clipPath><clipPath id="clip-path-12" transform="translate(71.43508 -43.49924)"><path id="SVGID-12" d="M714.67223,672.31868l246.169,189.67954a2.54621,2.54621,0,0,1,.57979,2.88738c-.43241,1.01417-1.39386,1.36631-2.14649.78645l-.01439-.0119Z" class="cls-20" data-name="SVGID"/></clipPath><mask id="mask-5" width="372.414" height="482.411" x="723.487" y="484.584" maskUnits="userSpaceOnUse"><g transform="translate(71.43508 -43.49924)"><polygon points="777.139 528.083 1024.466 721.669 899.379 1010.494 652.052 816.908 777.139 528.083" class="cls-14"/></g></mask><linearGradient id="linear-gradient-24" x1="-459.555" x2="-458.848" y1="1041.101" y2="1041.101" gradientTransform="matrix(350.37826, 274.24595, 204.49215, -472.16935, -51094.05059, 618234.93285)" xlink:href="#linear-gradient-20"/><clipPath id="clip-path-13" transform="translate(71.43508 -43.49924)"><rect id="SVGID-13" width="4.232" height="285.689" x="205.78" y="399.462" class="cls-20" data-name="SVGID" transform="translate(-335.13042 748.31267) rotate(-89.80053)"/></clipPath><clipPath id="clip-path-14" transform="translate(71.43508 -43.49924)"><path id="SVGID-14" d="M350.73951,542.80321,66.626,543.93009c-.86845.00287-1.5726-.9416-1.57293-2.10963-.001-1.16886.70224-2.11949,1.57006-2.12236l.0176.00006Z" class="cls-20" data-name="SVGID"/></clipPath><mask id="mask-6" width="285.706" height="5.232" x="136.476" y="496.193" maskUnits="userSpaceOnUse"><g transform="translate(71.43508 -43.49924)"><rect width="4.238" height="285.693" x="205.775" y="399.462" class="cls-15" transform="translate(-335.13554 748.31341) rotate(-89.80053)"/></g></mask><linearGradient id="linear-gradient-25" x1="-458.939" x2="-458.231" y1="1040.73" y2="1040.73" gradientTransform="matrix(0, -405.97232, -546.42364, -0.00015, 568887.50116, -185629.45143)" xlink:href="#linear-gradient-20"/><clipPath id="clip-path-15" transform="translate(71.43508 -43.49924)"><rect id="SVGID-15" width="4.232" height="285.693" x="807.305" y="401.553" class="cls-20" data-name="SVGID" transform="translate(262.20642 1351.92097) rotate(-89.80053)"/></clipPath><clipPath id="clip-path-16" transform="translate(71.43508 -43.49924)"><path id="SVGID-16" d="M666.57846,543.90277l284.11359-1.12688c.86843-.0038,1.57259.94072,1.57289,2.10958.001,1.16886-.70223,2.11861-1.57066,2.12241l-.017-.00006Z" class="cls-20" data-name="SVGID"/></clipPath><mask id="mask-7" width="285.706" height="5.233" x="738.006" y="498.281" maskUnits="userSpaceOnUse"><g transform="translate(71.43508 -43.49924)"><rect width="4.239" height="285.693" x="807.305" y="401.55" class="cls-16" transform="translate(262.21308 1351.92086) rotate(-89.80053)"/></g></mask><linearGradient id="linear-gradient-26" x1="-459.38" x2="-458.672" y1="1041.27" y2="1041.27" gradientTransform="matrix(0, 405.97232, 546.42364, 0.00015, -568164.99182, 186895.31984)" xlink:href="#linear-gradient-20"/><clipPath id="clip-path-17" transform="translate(71.43508 -43.49924)"><rect id="SVGID-17" width="285.159" height="123.329" x="247.694" y="789.35" class="cls-20" data-name="SVGID" transform="translate(-462.09498 1238.32216) rotate(-89.80053)"/></clipPath><clipPath id="clip-path-18" transform="translate(71.43508 -43.49924)"><path id="SVGID-18" d="M452.4336,708.65054q-3.70983,8.92884-7.66169,17.67231-1.97439,4.36944-4.00643,8.69294c-1.30055,2.92232-2.53278,5.90581-3.80261,8.857l-15.13152,35.49514L391.57087,850.3556l-60.51519,141.961c-.43242,1.01586-1.39387,1.368-2.14712.78814a2.54755,2.54755,0,0,1-.57979-2.88739l.00635-.01436.01013-.02367,61.87869-140.911,30.93646-70.44874,15.467-35.22309c1.29869-2.92739,2.55723-5.88457,3.88793-8.78983q2.0731-4.29546,4.08981-8.6224,4.03713-8.6649,7.82848-17.53377" class="cls-20" data-name="SVGID"/></clipPath><mask id="mask-8" width="124.546" height="285.888" x="399.323" y="664.721" maskUnits="userSpaceOnUse"><g transform="translate(71.43508 -43.49924)"><rect width="285.46" height="123.553" x="247.431" y="789.388" class="cls-17" transform="translate(-462.357 1238.35966) rotate(-89.80053)"/></g></mask><linearGradient id="linear-gradient-27" x1="-459.088" x2="-458.381" y1="1042.156" y2="1042.156" gradientTransform="matrix(0, 176.51076, 237.57692, 0.00006, -247201.99119, 81823.59496)" xlink:href="#linear-gradient-20"/><clipPath id="clip-path-19" transform="translate(71.43508 -43.49924)"><rect id="SVGID-19" width="281.776" height="121.869" x="516.504" y="176.554" class="cls-20" data-name="SVGID" transform="translate(417.6169 894.04933) rotate(-89.80053)"/></clipPath><clipPath id="clip-path-20" transform="translate(71.43508 -43.49924)"><path id="SVGID-20" d="M595.9664,378.16277c5.063-11.63474,9.98311-23.38249,15.17538-34.922l1.96066-4.31824.98089-2.14223a16.34629,16.34629,0,0,0,.74048-2.25558,24.57083,24.57083,0,0,1,1.46718-4.72286c.6583-1.42812,1.29785-2.87072,1.93113-4.32347,1.26526-2.90461,2.50238-5.84069,3.81723-8.72235q.9828-2.16249,2.04225-4.26971c.34957-.703.71607-1.39661,1.0807-2.08345l.55248-1.018a10.89792,10.89792,0,0,0,.44878-1.02342c.54768-1.4268.82-3.06451,1.31492-4.68785a13.75685,13.75685,0,0,1,.9431-2.31331l1.05807-2.08606c1.39566-2.78653,2.728-5.63089,4.029-8.50242,1.29786-2.87408,2.56442-5.77874,3.83284-8.68588l1.90989-4.35231c.63388-1.446,1.23387-2.92849,1.85276-4.39059,4.91878-11.74439,9.94487-23.42239,14.98723-35.07409l15.1102-34.9628c5.01973-11.65943,9.89341-23.43616,14.88-35.13713l29.792-70.28934c.42988-1.0159,1.39073-1.37148,2.1446-.79409a2.54389,2.54389,0,0,1,.58548,2.88487l-.00634.01434-.01455.03384-30.45923,69.7326c-5.0963,11.60331-10.08723,23.30091-15.22685,34.88795l-15.45258,34.70347c-5.15527,11.56328-10.286,23.13341-15.32025,34.79449-.63452,1.45609-1.24775,2.92415-1.90051,4.37006l-1.95377,4.32256c-1.29658,2.88338-2.59326,5.77182-3.92508,8.63477-1.33489,2.86212-2.70247,5.69953-4.13518,8.47922l-1.08005,2.07158a12.22365,12.22365,0,0,0-.88139,2.09432c-.47487,1.4829-.77,3.16619-1.38671,4.7375a11.89719,11.89719,0,0,1-.51713,1.1417l-.56574,1.01454c-.3696.6784-.736,1.35253-1.08994,2.04364q-1.06835,2.06449-2.06525,4.19772c-1.33551,2.84094-2.59825,5.749-3.89432,8.63829-.64768,1.4434-1.30672,2.88423-1.98327,4.30887a23.73316,23.73316,0,0,0-1.45969,4.5553,17.05373,17.05373,0,0,1-.79922,2.34852l-1.01053,2.14466-2.00013,4.27663c-5.29945,11.43838-10.33363,23.10111-15.50956,34.64572" class="cls-20" data-name="SVGID"/></clipPath><mask id="mask-9" width="123.076" height="282.498" x="667.401" y="52.59" maskUnits="userSpaceOnUse"><g transform="translate(71.43508 -43.49924)"><rect width="282.075" height="122.095" x="516.467" y="176.291" class="cls-18" transform="translate(417.87824 894.01284) rotate(-89.80053)"/></g></mask><linearGradient id="linear-gradient-28" x1="-459.715" x2="-459.008" y1="1041.089" y2="1041.089" gradientTransform="matrix(0, 174.44799, 234.8005, 0.00006, -243790.74206, 80371.05584)" xlink:href="#linear-gradient-20"/><clipPath id="clip-path-21" transform="translate(71.43508 -43.49924)"><rect id="SVGID-21" width="120.645" height="37.541" x="340.504" y="137.411" class="cls-20" data-name="SVGID" transform="translate(243.25055 556.46225) rotate(-89.80053)"/></clipPath><clipPath id="clip-path-22" transform="translate(71.43508 -43.49924)"><path id="SVGID-22" d="M419.38706,216.56939c-12.14539-39.38281-25.1245-78.26825-37.01261-117.85407a2.41963,2.41963,0,0,1,.86858-2.75717c.8052-.44065,1.72151.08049,2.04659,1.16338.00562.01861.01369.04654.01865.06608,10.88116,39.99539,22.908,79.4776,34.07879,119.38178" class="cls-20" data-name="SVGID"/></clipPath><mask id="mask-10" width="38.173" height="121.059" x="453.07" y="52.011" maskUnits="userSpaceOnUse"><g transform="translate(71.43508 -43.49924)"><rect width="120.928" height="37.752" x="340.258" y="137.164" class="cls-19" transform="translate(243.28752 556.21588) rotate(-89.80053)"/></g></mask><linearGradient id="linear-gradient-29" x1="-459.664" x2="-458.957" y1="1040.834" y2="1040.834" gradientTransform="matrix(0, 55.26374, 74.38294, 0.00002, -77019.6029, 25540.11134)" xlink:href="#linear-gradient-20"/><clipPath id="clip-path-23" transform="translate(71.43508 -43.49924)"><rect id="SVGID-23" width="113.07" height="35.246" x="586.348" y="920.264" class="cls-20" data-name="SVGID" transform="translate(-297.23709 1577.50144) rotate(-89.80053)"/></clipPath><clipPath id="clip-path-24" transform="translate(71.43508 -43.49924)"><path id="SVGID-24" d="M625.45421,881.29139c5.44514,18.594,11.51349,36.82108,17.26354,55.26122,1.43977,4.606,2.85609,9.24243,4.23982,13.8728l1.02487,3.4594c.36955,1.1397.76941,2.2651,1.15281,3.39891l2.32254,6.78688,2.32134,6.78348,1.15975,3.39047.58018,1.69481.29446.861a7.245,7.245,0,0,1,.33266,1.26483,8.504,8.504,0,0,1,.1061,1.29536c.005.3682.00473.62719.02045.80922a2.4464,2.4464,0,0,0,.07955.45564,2.23372,2.23372,0,0,0,.076.22964l.14821.40255c.44362,1.189.81674,2.38461,1.17618,3.54373a48.91806,48.91806,0,0,0,2.32,6.42968,2.58489,2.58489,0,0,1-.4937,2.92,1.35706,1.35706,0,0,1-2.16847-.65927c-.00877-.01781-.01684-.03645-.025-.0551l-.01059-.02374a54.63428,54.63428,0,0,1-2.36283-7.14335c-.32481-1.16154-.64292-2.28581-1.00515-3.34845l-.14945-.44319c-.06846-.20168-.1312-.41265-.18453-.63882a7.45449,7.45449,0,0,1-.192-1.37691c-.02042-.44105-.00532-.80833-.00382-1.06394a3.75839,3.75839,0,0,0-.02382-.56632,2.54207,2.54207,0,0,0-.12023-.50148l-.26554-.8541-.53921-1.73529-1.07895-3.4689-2.156-6.93611-2.15485-6.93356c-.3556-1.15742-.72706-2.30388-1.06889-3.46972l-.94534-3.54884c-1.264-4.70359-2.54936-9.37256-3.86624-14.04248-5.25442-18.67286-10.84945-37.20726-15.80383-56.05005" class="cls-20" data-name="SVGID"/></clipPath><mask id="mask-11" width="35.862" height="113.489" x="696.495" y="837.792" maskUnits="userSpaceOnUse"><g transform="translate(71.43508 -43.49924)"><rect width="113.366" height="35.467" x="586.307" y="920.302" class="cls-3" transform="translate(-297.2785 1577.75678) rotate(-89.80053)"/></g></mask><linearGradient id="linear-gradient-30" x1="-461.647" x2="-460.94" y1="1045.43" y2="1045.43" gradientTransform="matrix(0, 52.00985, 70.00332, 0.00002, -72540.58505, 24928.91866)" xlink:href="#linear-gradient-20"/><clipPath id="clip-path-25" transform="translate(71.43508 -43.49924)"><rect id="SVGID-25" width="96.837" height="92.428" x="216.066" y="224.293" class="cls-20" data-name="SVGID" transform="translate(-6.94206 534.04883) rotate(-89.80053)"/></clipPath><clipPath id="clip-path-26" transform="translate(71.43508 -43.49924)"><path id="SVGID-26" d="M310.52931,319.08681,219.053,225.73667a2.62749,2.62749,0,0,1-.30034-2.96425,1.32681,1.32681,0,0,1,2.203-.40964c.01.00938.02507.0255.03382.03571Z" class="cls-20" data-name="SVGID"/></clipPath><mask id="mask-12" width="162.626" height="217.999" x="254.503" y="117.869" maskUnits="userSpaceOnUse"><g transform="translate(71.43508 -43.49924)"><polygon points="275.461 379.368 183.068 282.098 253.302 161.369 345.695 258.639 275.461 379.368" class="cls-4"/></g></mask><linearGradient id="linear-gradient-31" x1="-458.811" x2="-458.103" y1="1040.832" y2="1040.832" gradientTransform="matrix(-131.27588, -138.20607, -102.95858, 176.98166, 47315.0118, -247341.80738)" xlink:href="#linear-gradient-20"/><clipPath id="clip-path-27" transform="translate(71.43508 -43.49924)"><rect id="SVGID-27" width="23.178" height="115.543" x="186.046" y="423.199" class="cls-20" data-name="SVGID" transform="translate(-284.02095 676.93006) rotate(-89.80053)"/></clipPath><clipPath id="clip-path-28" transform="translate(71.43508 -43.49924)"><path id="SVGID-28" d="M255.36579,492.76059,141.26905,473.40243a2.07649,2.07649,0,0,1-1.35951-2.36451c.11031-1.15918.898-1.98082,1.75959-1.83478l.04275.0078Z" class="cls-20" data-name="SVGID"/></clipPath><mask id="mask-13" width="120.394" height="65.757" x="208.826" y="404.53" maskUnits="userSpaceOnUse"><g transform="translate(71.43508 -43.49924)"><polygon points="253.141 513.785 137.391 491.916 142.035 448.029 257.785 469.898 253.141 513.785" class="cls-5"/></g></mask><linearGradient id="linear-gradient-32" x1="-459.009" x2="-458.302" y1="1040.424" y2="1040.424" gradientTransform="matrix(-165.33029, -31.23663, -23.55501, 222.5928, -51052.46523, -245480.1489)" xlink:href="#linear-gradient-20"/><clipPath id="clip-path-29" transform="translate(71.43508 -43.49924)"><rect id="SVGID-29" width="23.178" height="115.542" x="914.169" y="617.871" class="cls-20" data-name="SVGID" transform="translate(246.89765 1599.04318) rotate(-89.80053)"/></clipPath><clipPath id="clip-path-30" transform="translate(71.43508 -43.49924)"><path id="SVGID-30" d="M868.02816,663.852l114.09866,19.35988a2.07534,2.07534,0,0,1,1.35946,2.36363c-.11028,1.1592-.898,1.98084-1.759,1.83395a.34994.34994,0,0,1-.04212-.00692Z" class="cls-20" data-name="SVGID"/></clipPath><mask id="mask-14" width="120.397" height="65.759" x="937.044" y="599.327" maskUnits="userSpaceOnUse"><g transform="translate(71.43508 -43.49924)"><polygon points="870.253 642.827 986.006 664.696 981.362 708.585 865.609 686.715 870.253 642.827" class="cls-6"/></g></mask><linearGradient id="linear-gradient-33" x1="-460.529" x2="-459.821" y1="1041.668" y2="1041.668" gradientTransform="matrix(165.33312, 31.23717, 23.55541, -222.59661, 52541.5865, 246878.30174)" xlink:href="#linear-gradient-20"/><clipPath id="clip-path-31" transform="translate(71.43508 -43.49924)"><rect id="SVGID-31" width="60.36" height="108.122" x="800.148" y="322.756" class="cls-20" data-name="SVGID" transform="translate(450.62288 1205.8292) rotate(-89.80053)"/></clipPath><clipPath id="clip-path-32" transform="translate(71.43508 -43.49924)"><path id="SVGID-32" d="M776.16279,406.8092,882.31,346.98558c.80083-.4526,1.7216.0559,2.05553,1.1337a2.43381,2.43381,0,0,1-.84667,2.76985l-.0403.021Z" class="cls-20" data-name="SVGID"/></clipPath><mask id="mask-15" width="139.666" height="162.257" x="832.038" y="252.046" maskUnits="userSpaceOnUse"><g transform="translate(71.43508 -43.49924)"><polygon points="760.603 354.736 869.471 295.545 900.269 398.612 791.4 457.803 760.603 354.736" class="cls-7"/></g></mask><linearGradient id="linear-gradient-34" x1="-459.953" x2="-459.246" y1="1041.829" y2="1041.829" gradientTransform="matrix(154.90615, -84.22104, -62.24846, -208.31995, 136947.78888, 178659.5283)" xlink:href="#linear-gradient-20"/><clipPath id="clip-path-33" transform="translate(71.43508 -43.49924)"><rect id="SVGID-33" width="124.058" height="72.148" x="258.301" y="856.478" class="cls-20" data-name="SVGID" transform="translate(-573.33151 1209.77198) rotate(-89.80053)"/></clipPath><clipPath id="clip-path-34" transform="translate(71.43508 -43.49924)"><path id="SVGID-34" d="M356.61935,830.64746,286.86844,953.62554a1.32636,1.32636,0,0,1-2.20362.40283,2.63074,2.63074,0,0,1-.294-2.966c.007-.01352.019-.03294.02656-.04561Z" class="cls-20" data-name="SVGID"/></clipPath><mask id="mask-16" width="161.965" height="218.754" x="310.679" y="739.813" maskUnits="userSpaceOnUse"><g transform="translate(71.43508 -43.49924)"><polygon points="401.209 877.591 328.796 1002.066 239.244 907.787 311.657 783.312 401.209 877.591" class="cls-8"/></g></mask><linearGradient id="linear-gradient-35" x1="-459.834" x2="-459.126" y1="1040.143" y2="1040.143" gradientTransform="matrix(-102.88893, 176.86193, 131.18706, 138.11257, -183336.27346, -61544.50208)" xlink:href="#linear-gradient-20"/><clipPath id="clip-path-35" transform="translate(71.43508 -43.49924)"><rect id="SVGID-35" width="124.056" height="72.146" x="692.377" y="146.016" class="cls-20" data-name="SVGID" transform="translate(569.69026 935.85482) rotate(-89.80053)"/></clipPath><clipPath id="clip-path-36" transform="translate(71.43508 -43.49924)"><path id="SVGID-36" d="M718.11668,243.99072,787.867,121.01351a1.3257,1.3257,0,0,1,2.20357-.402,2.62917,2.62917,0,0,1,.294,2.96589l-.02657.04568Z" class="cls-20" data-name="SVGID"/></clipPath><mask id="mask-17" width="161.963" height="218.753" x="744.963" y="29.074" maskUnits="userSpaceOnUse"><g transform="translate(71.43508 -43.49924)"><polygon points="673.527 197.048 745.94 72.573 835.491 166.851 763.078 291.326 673.527 197.048" class="cls-9"/></g></mask><linearGradient id="linear-gradient-36" x1="-459.56" x2="-458.853" y1="1041.896" y2="1041.896" gradientTransform="matrix(102.88818, -176.86066, -131.18612, -138.11157, 184754.4198, 62822.13139)" xlink:href="#linear-gradient-20"/><clipPath id="clip-path-37" transform="translate(71.43508 -43.49924)"><rect id="SVGID-37" width="155.084" height="17.265" x="415.499" y="873.27" class="cls-20" data-name="SVGID" transform="translate(-390.57303 1371.87036) rotate(-89.80053)"/></clipPath><clipPath id="clip-path-38" transform="translate(71.43508 -43.49924)"><path id="SVGID-38" d="M501.94342,804.39119l-14.66588,153.178c-.11093,1.15918-.89923,1.98082-1.76022,1.83394a2.07715,2.07715,0,0,1-1.35822-2.36618c.00132-.01607.00391-.04146.00584-.05668Z" class="cls-20" data-name="SVGID"/></clipPath><mask id="mask-18" width="49.046" height="161.584" x="539.905" y="757.675" maskUnits="userSpaceOnUse"><g transform="translate(71.43508 -43.49924)"><polygon points="517.516 807.333 501.069 962.759 468.47 956.6 484.917 801.174 517.516 807.333" class="cls-10"/></g></mask><linearGradient id="linear-gradient-37" x1="-460.053" x2="-459.345" y1="1040.322" y2="1040.322" gradientTransform="matrix(-23.49277, 222.00467, 164.89347, 31.1541, -181777.35659, 70482.24604)" xlink:href="#linear-gradient-20"/><clipPath id="clip-path-39" transform="translate(71.43508 -43.49924)"><rect id="SVGID-39" width="86.254" height="10.2" x="524.62" y="134.281" class="cls-20" data-name="SVGID" transform="translate(426.39008 706.63866) rotate(-89.80053)"/></clipPath><clipPath id="clip-path-40" transform="translate(71.43508 -43.49924)"><path id="SVGID-40" d="M562.49467,182.48976c3.219-27.99183,4.7032-56.20554,7.36379-84.3685.109-1.16.89608-1.98341,1.75835-1.83824a2.07338,2.07338,0,0,1,1.36142,2.362c-.00264.03212-.00724.07282-.01111.10493-3.68053,27.79893-6.2211,55.99537-10.47245,83.73983" class="cls-20" data-name="SVGID"/></clipPath><mask id="mask-19" width="10.598" height="86.416" x="633.93" y="52.611" maskUnits="userSpaceOnUse"><g transform="translate(71.43508 -43.49924)"><rect width="86.38" height="10.297" x="524.604" y="134.169" class="cls-11" transform="translate(426.49988 706.62307) rotate(-89.80053)"/></g></mask><linearGradient id="linear-gradient-38" x1="-465.653" x2="-464.945" y1="1040.126" y2="1040.126" gradientTransform="matrix(0, 16.63337, 22.38789, 0.00001, -22718.42269, 7877.96829)" xlink:href="#linear-gradient-20"/><clipPath id="clip-path-41" transform="translate(71.43508 -43.49924)"><polygon id="SVGID-41" points="171.475 692.814 171.607 654.888 8.01 751.162 8 754 151.992 699.069 151.809 751.592 388.251 607.032 171.475 692.814" class="cls-20" data-name="SVGID"/></clipPath><radialGradient id="radial-gradient-2" cx="-459.431" cy="1041.12" r=".481" gradientTransform="matrix(-342.06477, 288.30611, 310.45647, 316.19675, -479931.32788, -196178.88695)" gradientUnits="userSpaceOnUse"><stop offset="0" stop-color="#5d05a1"/><stop offset=".308" stop-color="#c32285"/><stop offset=".454" stop-color="#ef2e79"/><stop offset=".995" stop-color="#fbb120"/><stop offset="1" stop-color="#fbb120"/></radialGradient><clipPath id="clip-path-42" transform="translate(71.43508 -43.49924)"><polygon id="SVGID-42" points="840.64 381.002 873.467 402.669 683.979 525.852 934.701 420.769 889.24 390.762 995 320.027 995.024 313.115 840.64 381.002" class="cls-20" data-name="SVGID"/></clipPath><radialGradient id="radial-gradient-3" cx="-457.854" cy="1040.76" r=".481" gradientTransform="matrix(-418.96318, -0.00005, -0.00005, 417.77445, -190835.17766, -434354.55429)" xlink:href="#radial-gradient-2"/><clipPath id="clip-path-43" transform="translate(71.43508 -43.49924)"><rect id="SVGID-43" width="649.258" height="1154.236" x="75.1" y="-126.099" class="cls-20" data-name="SVGID" transform="translate(-52.68003 849.17533) rotate(-89.80052)"/></clipPath><clipPath id="clip-path-44" transform="translate(71.43508 -43.49924)"><rect id="SVGID-44" width="74.881" height="285.096" x="379.613" y="242.884" class="cls-20" data-name="SVGID" transform="translate(30.17209 801.14191) rotate(-89.80052)"/></clipPath><clipPath id="clip-path-45" transform="translate(71.43508 -43.49924)"><rect id="SVGID-45" width="715.789" height="1210.602" x="136.054" y="-231.301" class="cls-20" data-name="SVGID" transform="translate(118.23174 866.64365) rotate(-89.80052)"/></clipPath></defs><title>logo</title><g class="cls-21"><g id="Layer_1" data-name="Layer 1"><polygon points="182.402 225.114 572.311 0 962.22 225.114 962.22 675.343 572.311 900.457 182.402 675.343 182.402 225.114" class="cls-22"/><g class="cls-23"><g class="cls-24"><g class="cls-25"><g class="cls-24"><g class="cls-26"><g class="cls-27"><g class="cls-28"><rect width="256.141" height="3.152" x="397.237" y="222.669" class="cls-29" transform="translate(370.67041 705.26893) rotate(-89.80053)"/></g></g></g></g><g class="cls-24"><g class="cls-30"><g class="cls-31"><g class="cls-32"><rect width="259.505" height="3.152" x="393.334" y="862.675" class="cls-33" transform="translate(-271.5449 1340.82633) rotate(-89.80053)"/></g></g></g></g><g class="cls-24"><g class="cls-34"><g class="cls-35"><g class="cls-36"><rect width="285.467" height="123.554" x="513.36" y="790.317" class="cls-37" transform="translate(-126.84397 1461.71765) rotate(-89.80053)"/></g></g></g></g><g class="cls-24"><g class="cls-38"><g class="cls-39"><g class="cls-40"><polygon points="351.153 518.579 103.825 324.992 228.913 36.166 476.241 229.752 351.153 518.579" class="cls-41"/></g></g></g></g><g class="cls-24"><g class="cls-42"><g class="cls-43"><g class="cls-44"><polygon points="848.574 484.584 1095.901 678.17 970.814 966.995 723.487 773.409 848.574 484.584" class="cls-45"/></g></g></g></g><g class="cls-24"><g class="cls-46"><g class="cls-47"><g class="cls-48"><rect width="4.238" height="285.693" x="205.775" y="399.462" class="cls-49" transform="translate(-263.70054 704.81419) rotate(-89.80053)"/></g></g></g></g><g class="cls-24"><g class="cls-50"><g class="cls-51"><g class="cls-52"><rect width="4.239" height="285.693" x="807.305" y="401.55" class="cls-53" transform="translate(333.648 1308.42155) rotate(-89.80053)"/></g></g></g></g><g class="cls-24"><g class="cls-54"><g class="cls-55"><g class="cls-56"><rect width="285.46" height="123.553" x="247.431" y="789.388" class="cls-57" transform="translate(-390.92186 1194.86045) rotate(-89.80053)"/></g></g></g></g><g class="cls-24"><g class="cls-58"><g class="cls-59"><g class="cls-60"><rect width="282.075" height="122.095" x="516.467" y="176.291" class="cls-61" transform="translate(489.31332 850.5136) rotate(-89.80053)"/></g></g></g></g><g class="cls-24"><g class="cls-62"><g class="cls-63"><g class="cls-64"><rect width="120.928" height="37.752" x="340.257" y="137.164" class="cls-65" transform="translate(314.72244 512.71668) rotate(-89.80053)"/></g></g></g></g><g class="cls-24"><g class="cls-66"><g class="cls-67"><g class="cls-68"><rect width="113.366" height="35.467" x="586.307" y="920.302" class="cls-69" transform="translate(-225.8435 1534.25747) rotate(-89.80053)"/></g></g></g></g><g class="cls-24"><g class="cls-70"><g class="cls-71"><g class="cls-72"><polygon points="346.896 335.869 254.503 238.599 324.738 117.869 417.13 215.139 346.896 335.869" class="cls-73"/></g></g></g></g><g class="cls-24"><g class="cls-74"><g class="cls-75"><g class="cls-76"><polygon points="324.576 470.286 208.826 448.417 213.47 404.53 329.22 426.399 324.576 470.286" class="cls-77"/></g></g></g></g><g class="cls-24"><g class="cls-78"><g class="cls-79"><g class="cls-80"><polygon points="941.688 599.327 1057.441 621.197 1052.797 665.086 937.044 643.216 941.688 599.327" class="cls-81"/></g></g></g></g><g class="cls-24"><g class="cls-82"><g class="cls-83"><g class="cls-84"><polygon points="832.038 311.237 940.906 252.046 971.704 355.113 862.835 414.303 832.038 311.237" class="cls-85"/></g></g></g></g><g class="cls-24"><g class="cls-86"><g class="cls-87"><g class="cls-88"><polygon points="472.644 834.092 400.231 958.567 310.679 864.288 383.092 739.813 472.644 834.092" class="cls-89"/></g></g></g></g><g class="cls-24"><g class="cls-90"><g class="cls-91"><g class="cls-92"><polygon points="744.963 153.548 817.375 29.074 906.926 123.352 834.513 247.827 744.963 153.548" class="cls-93"/></g></g></g></g><g class="cls-24"><g class="cls-94"><g class="cls-95"><g class="cls-96"><polygon points="588.951 763.834 572.504 919.259 539.905 913.1 556.352 757.675 588.951 763.834" class="cls-97"/></g></g></g></g><g class="cls-24"><g class="cls-98"><g class="cls-99"><g class="cls-100"><rect width="86.38" height="10.297" x="524.604" y="134.169" class="cls-101" transform="translate(497.93497 663.12383) rotate(-89.80053)"/></g></g></g></g></g></g></g><g class="cls-103"><polygon points="539.121 644.437 252.096 886.354 0 629.597 287.026 387.68 539.121 644.437" class="cls-104"/></g><g class="cls-105"><rect width="376.791" height="354.178" x="651.106" y="242.394" class="cls-106" transform="translate(-16.71023 518.11334) rotate(-35.26127)"/></g><g class="cls-110"><path d="M418.21022,598.18638s4.92852,23.08775,34.95239,24.5c-2.634,12.40206-8.64851,24.84173-10.6605,35.7655-.67865,3.57544-4.22626,23.2533-15.99013,28.66538-11.7638,5.3874-22.35226-22.06275-20.107-36.19338,0,0,12.53117-41.5328,11.80527-52.73752Z" class="cls-111" transform="translate(71.43508 -43.49924)"/><path d="M418.21022,598.18638s4.92852,23.08775,34.95239,24.5c-1.90658,8.99952-5.5897,17.99288-8.23454,26.42234-.76786-13.32689-3.43354-20.171-3.43354-20.171A41.22931,41.22931,0,0,1,416.25792,613.231c1.32989-6.36137,2.16336-11.88554,1.9523-15.0446Z" class="cls-111" transform="translate(71.43508 -43.49924)"/><path d="M629.74159,598.92283s-5.08916,23.05287-35.12214,24.25606c2.57225,12.42019,8.47533,24.90134,10.43588,35.83895.62907,3.58,4.03958,23.28207,15.79015,28.776,11.726,5.46918,22.48067-21.90666,20.35858-36.0525,0,0-12.26635-41.61913-11.46247-52.81853Z" class="cls-111" transform="translate(71.43508 -43.49924)"/><path d="M629.74159,598.92283s-5.08916,23.05287-35.12214,24.25606c1.86855,9.01266,5.489,18.03145,8.07506,26.47912.86062-13.32122,3.54922-20.14666,3.54922-20.14666,11.97555-2.42577,19.99127-8.5171,25.34536-15.53069-1.26087-6.37038-2.08055-11.90031-1.8475-15.05783Z" class="cls-111" transform="translate(71.43508 -43.49924)"/><path d="M588.25372,566.40552s36.98486-6.484,43.32526,22.13576-24.68984,39.86195-38.07554,36.26224c0,0-24.12549-44.27591-23.6254-46.17411s18.37568-12.22389,18.37568-12.22389Z" class="cls-111" transform="translate(71.43508 -43.49924)"/><path d="M459.92353,565.95874s-36.91417-6.74125-43.45369,21.83363,24.4117,40.0329,37.79745,36.5264c0,0,24.45787-44.10677,23.971-46.00841s-18.31476-12.35162-18.31476-12.35162Z" class="cls-111" transform="translate(71.43508 -43.49924)"/><path d="M482.63037,571.21942s-28.973,8.58453-28.884,39.724a147.81221,147.81221,0,0,0,1.8766,20.88111c5.76577,37.74728,25.57651,95.25833,67.91983,94.69019,42.31364.86288,62.549-56.50876,68.5775-94.215a143.73017,143.73017,0,0,0,1.99726-20.86762c.33046-31.138-28.582-39.92406-28.582-39.92406-13.31327,11.03248-41.4821,8.34358-41.4821,8.34358s-28.18689,2.49269-41.423-8.63222Z" class="cls-111" transform="translate(71.43508 -43.49924)"/><path d="M475.73562,574.25506a44.03822,44.03822,0,0,0-14.75062,12.8287c5.60035,7.29844,21.177,19.44316,62.97345,20.03281,41.77485-.29869,57.43568-12.33466,63.1114-19.59384a44.03827,44.03827,0,0,0-14.661-12.9311l-14.24143,1.23349c-14.25777,5.92157-34.11409,4.02652-34.11409,4.02652s-19.89373,1.75666-34.08523-4.264Z" class="cls-111" transform="translate(71.43508 -43.49924)"/><path d="M524.58073,428.37712S449.0471,429.866,438.42206,483.792s3.96236,109.24755,85.58131,110.42c81.60047-.60417,96.59736-55.82271,86.3234-109.82148-10.24928-53.99865-85.746-56.01339-85.746-56.01339Z" class="cls-111" transform="translate(71.43508 -43.49924)"/><path d="M492.00892,471.34529s17.81364,7.46435,32.40662,4.48021c14.57185,3.08568,32.437-4.25445,32.437-4.25445,11.34736-6.25247,49.16569,3.00871,36.39509,49.52493-12.79534,46.54078-69.14573,44.81477-69.14573,44.81477s-56.36107,1.3336-68.832-45.29515c-12.44638-46.604,25.43552-55.60163,36.739-49.27031Z" class="cls-111" transform="translate(71.43508 -43.49924)"/><path d="M524.58073,428.37712a140.06693,140.06693,0,0,0-29.65,4.58491c3.02583,9.7076,9.87756,26.11525,21.91424,27.3909l7.62432.02654,7.59962.02646c12.04527-1.1918,19.03575-17.55126,22.1291-27.23756a140.06691,140.06691,0,0,0-29.61731-4.79125Z" class="cls-111" transform="translate(71.43508 -43.49924)"/><path d="M604.37356,656.4c.34133,1.18555.58488,2.09936.68177,2.61786l.07265.395c4.0058-2.45349,13.66627-6.121,36.14811-7.10377-.024-.19747-.048-.37028-.072-.56774,0,0-.39033-1.28443-.99962-3.45791-10.46236.11163-26.18476,1.488-35.83088,8.11653Z" class="cls-111" transform="translate(71.43508 -43.49924)"/><path d="M609.84154,482.02008c5.24777,2.26365,14.18772,7.10628,14.17149,11.76969,0,0,6.30107,47.00207-14.45065,47.1519h0c4.89618-17.23037,4.4961-36.97132.76439-56.55116-.14521-.81475-.31519-1.60493-.48523-2.37043Z" class="cls-111" transform="translate(71.43508 -43.49924)"/><path d="M624.86215,512.12586c-.39139,13.19943-3.38174,28.73392-15.29977,28.81581h0a98.69629,98.69629,0,0,0,3.53676-23.65048,42.66351,42.66351,0,0,0,11.763-5.16533Z" class="cls-111" transform="translate(71.43508 -43.49924)"/><path d="M606.8545,482.42916s.80485-39.82175-30.91323-57.79646c0,0-19.791.5973-17.79174-13.75627s22.6323-1.6731,23.27462,5.18866c-.55307,2.93434,50.55416,43.603,28.01482,75.28053Z" class="cls-111" transform="translate(71.43508 -43.49924)"/><path d="M592.12026,632.29974c-.15123.91242-.30245,1.82485-.45377,2.76194-16.33287,6.62993-37.04048,8.285-37.04048,8.285-2.29186,34.61027-30.902,31.10557-30.902,31.10557l.00628-1.80121c31.33915-.7545,29.0564-32.54313,29.0564-32.54313a117.68635,117.68635,0,0,0,39.33357-7.80821Z" class="cls-111" transform="translate(71.43508 -43.49924)"/><path d="M562.964,495.08239h0a10.91493,10.91493,0,0,0-10.91919,10.8434l-.06511,18.703a10.9149,10.9149,0,0,0,10.84341,10.91914h0a10.899,10.899,0,0,0,10.91919-10.84337l.06511-18.703A10.899,10.899,0,0,0,562.964,495.08239Z" class="cls-111" transform="translate(71.43508 -43.49924)"/><path d="M553.12185,501.31542a10.73535,10.73535,0,0,0-1.077,4.61037l-.06511,18.703a10.9149,10.9149,0,0,0,10.84341,10.91914h0a10.82678,10.82678,0,0,0,4.64235-1.02015,10.71729,10.71729,0,0,0,1.05237-4.61045l.06511-18.703a10.91494,10.91494,0,0,0-10.84339-10.91918h0a10.63636,10.63636,0,0,0-4.61769,1.02026Z" class="cls-111" transform="translate(71.43508 -43.49924)"/><path d="M443.17742,655.83877a23.69059,23.69059,0,0,0-.67531,2.61313l-.0754.39452c-4.01329-2.48141-13.648-6.21613-36.12244-7.35538a4.5542,4.5542,0,0,1,.10068-.56714s.37459-1.28177.999-3.451c10.486.18456,26.19842,1.67038,35.77347,8.36582Z" class="cls-111" transform="translate(71.43508 -43.49924)"/><path d="M438.94846,481.42511c-5.26341,2.22706-14.23686,7.00731-14.2531,11.67073,0,0-6.65287,46.957,14.09731,47.25128l.02467.00009c-4.77609-17.264-4.23854-37.00172-.39528-56.55519q.22632-1.22058.5264-2.36691Z" class="cls-111" transform="translate(71.43508 -43.49924)"/><path d="M423.69391,511.42548c.29947,13.20184,3.20626,28.75686,15.09876,28.92164l.02467.00009a99.95112,99.95112,0,0,1-3.39667-23.67462,43.00386,43.00386,0,0,1-11.72676-5.24711Z" class="cls-111" transform="translate(71.43508 -43.49924)"/><path d="M441.9079,481.85489s-.50288-39.8263,31.31492-57.57981c0,0,19.811.73518,17.91177-13.632-1.92394-14.36721-22.64478-1.83074-23.31018,5.02646.53262,2.93812-50.85655,43.25-28.563,75.08356Z" class="cls-111" transform="translate(71.43508 -43.49924)"/><path d="M455.62293,631.82452c.12018.91336.26505,1.82683.43451,2.765,16.28633,6.7435,36.98192,8.54275,36.98192,8.54275,2.05078,34.62539,30.68465,31.32,30.68465,31.32l.00628-1.80121c-31.33315-.9727-28.82913-32.74466-28.82913-32.74466a117.4863,117.4863,0,0,1-39.27823-8.0819Z" class="cls-111" transform="translate(71.43508 -43.49924)"/><path d="M456.32353,636.12032c6.55569,37.65132,26.45514,90.94336,67.21923,90.39439,40.73459.83271,61.00463-52.31947,67.847-89.92415-6.6685,16.01514-28.3859,59.66264-67.74244,59.89573-39.354-.50712-60.79161-44.30486-67.32377-60.366Z" class="cls-111" transform="translate(71.43508 -43.49924)"/><path d="M523.92194,617.60307a24.90869,24.90869,0,1,1-25.00765,24.83412,24.915,24.915,0,0,1,25.00765-24.83412Z" class="cls-111" transform="translate(71.43508 -43.49924)"/><path d="M523.92194,617.60307a24.908,24.908,0,0,1,24.33338,19.997,24.92439,24.92439,0,0,1-48.83012-.17,24.935,24.935,0,0,1,24.49674-19.827Z" class="cls-111" transform="translate(71.43508 -43.49924)"/><path d="M485.70925,494.81342h0a10.899,10.899,0,0,1,10.84341,10.91917l-.06511,18.703A10.899,10.899,0,0,1,485.56837,535.279h0a10.91491,10.91491,0,0,1-10.8434-10.91914l.06511-18.703a10.91493,10.91493,0,0,1,10.91917-10.8434Z" class="cls-111" transform="translate(71.43508 -43.49924)"/><path d="M495.53242,501.11492a10.71724,10.71724,0,0,1,1.02024,4.61767l-.06511,18.703A10.899,10.899,0,0,1,485.56837,535.279h0a10.71714,10.71714,0,0,1-4.61046-1.05237,10.71725,10.71725,0,0,1-1.02024-4.61767l.06512-18.703A10.899,10.899,0,0,1,490.922,500.06253h0a10.71726,10.71726,0,0,1,4.61045,1.05239Z" class="cls-111" transform="translate(71.43508 -43.49924)"/><path d="M498.62262,442.72128c3.82029,8.30392,9.73749,16.73849,18.22238,17.63165l7.62432.02654,7.59962.02646c8.51558-.834,14.49134-9.22714,18.36938-17.50425a147.32953,147.32953,0,0,0-25.89229-4.55621,146.96391,146.96391,0,0,0-25.92341,4.37581Z" class="cls-111" transform="translate(71.43508 -43.49924)"/></g><path d="M411.2306,589.1478s4.92852,23.08777,34.95239,24.5c-2.634,12.40206-8.64851,24.84173-10.6605,35.7655-.67866,3.57542-4.22627,23.25328-15.99013,28.66537-11.7638,5.38741-22.35226-22.06274-20.107-36.19337,0,0,12.53118-41.5328,11.80528-52.73754Z" class="cls-112" transform="translate(71.43508 -43.49924)"/><path d="M411.2306,589.1478s4.92852,23.08777,34.95239,24.5c-1.90659,8.99952-5.58971,17.99288-8.23454,26.42234-.76786-13.32689-3.43355-20.171-3.43355-20.171a41.22934,41.22934,0,0,1-25.23661-15.70679c1.32989-6.36139,2.16337-11.88554,1.95231-15.04462Z" class="cls-113" transform="translate(71.43508 -43.49924)"/><path d="M622.762,589.88425s-5.08916,23.05289-35.12213,24.25608c2.57225,12.42019,8.47533,24.90134,10.43588,35.839.62907,3.58,4.03958,23.28205,15.79015,28.776,11.726,5.46919,22.48066-21.90665,20.35858-36.05249,0,0-12.26636-41.61914-11.46248-52.81855Z" class="cls-112" transform="translate(71.43508 -43.49924)"/><path d="M622.762,589.88425s-5.08916,23.05289-35.12213,24.25608c1.86855,9.01266,5.489,18.03144,8.07505,26.47912.86062-13.32122,3.54922-20.14666,3.54922-20.14666,11.97555-2.42577,19.99127-8.5171,25.34537-15.53069-1.26087-6.3704-2.08056-11.90031-1.84751-15.05785Z" class="cls-113" transform="translate(71.43508 -43.49924)"/><path d="M581.27409,557.367s36.98487-6.484,43.32527,22.13576-24.68984,39.862-38.07555,36.26224c0,0-24.12548-44.27591-23.62539-46.17411S581.27409,557.367,581.27409,557.367Z" class="cls-114" transform="translate(71.43508 -43.49924)"/><path d="M452.9439,556.92018s-36.91416-6.74125-43.45369,21.83363,24.4117,40.0329,37.79746,36.5264c0,0,24.45786-44.10677,23.971-46.00841s-18.31477-12.35162-18.31477-12.35162Z" class="cls-114" transform="translate(71.43508 -43.49924)"/><path d="M475.65074,562.18086s-28.973,8.58453-28.884,39.724a147.81392,147.81392,0,0,0,1.87661,20.88113c5.76576,37.74726,25.5765,95.25833,67.91982,94.69019,42.31364.86288,62.549-56.50878,68.57751-94.215a143.73,143.73,0,0,0,1.99725-20.86764c.33047-31.138-28.582-39.924-28.582-39.924-13.31328,11.03246-41.48211,8.34357-41.48211,8.34357s-28.18689,2.49268-41.423-8.63221Z" class="cls-112" transform="translate(71.43508 -43.49924)"/><path d="M468.756,565.21648a44.03866,44.03866,0,0,0-14.75063,12.82872c5.60035,7.29844,21.177,19.44316,62.97345,20.03281,41.77485-.29869,57.43568-12.33466,63.11141-19.59384a44.03851,44.03851,0,0,0-14.661-12.93112l-14.24143,1.23349c-14.25777,5.92159-34.11409,4.02653-34.11409,4.02653s-19.89373,1.75667-34.08523-4.264Z" class="cls-113" transform="translate(71.43508 -43.49924)"/><path d="M517.60111,419.33856s-75.53364,1.4889-86.15868,55.41489,3.96236,109.24754,85.58132,110.42c81.60046-.60419,96.59735-55.82271,86.3234-109.82148-10.24928-53.99867-85.746-56.01339-85.746-56.01339Z" class="cls-112" transform="translate(71.43508 -43.49924)"/><path d="M485.0293,462.30673s17.81363,7.46435,32.40662,4.48021c14.57184,3.08568,32.437-4.25445,32.437-4.25445,11.34735-6.25247,49.16568,3.00871,36.39508,49.52491-12.79534,46.5408-69.14573,44.81479-69.14573,44.81479s-56.36106,1.3336-68.832-45.29517c-12.44638-46.604,25.43552-55.60161,36.739-49.27029Z" class="cls-115" transform="translate(71.43508 -43.49924)"/><path d="M517.60111,419.33856a140.06693,140.06693,0,0,0-29.65,4.58491c3.02583,9.7076,9.87755,26.11525,21.91423,27.39089l7.62432.02655,7.59962.02646c12.04528-1.1918,19.03576-17.55126,22.1291-27.23756a140.06678,140.06678,0,0,0-29.6173-4.79125Z" class="cls-116" transform="translate(71.43508 -43.49924)"/><path d="M597.39394,647.36142c.34132,1.18555.58487,2.09936.68177,2.61786l.07265.395c4.0058-2.45347,13.66626-6.121,36.14811-7.10375-.024-.19749-.048-.37028-.072-.56774,0,0-.39033-1.28445-.99963-3.45791-10.46236.11163-26.18476,1.488-35.83087,8.11653Z" class="cls-117" transform="translate(71.43508 -43.49924)"/><path d="M602.86192,472.98152c5.24777,2.26363,14.18772,7.10628,14.17148,11.76969,0,0,6.30108,47.00207-14.45065,47.1519h0c4.89619-17.23037,4.49611-36.97134.7644-56.55116-.14522-.81477-.31519-1.60493-.48523-2.37043Z" class="cls-116" transform="translate(71.43508 -43.49924)"/><path d="M617.88253,503.08728c-.39139,13.19945-3.38174,28.73394-15.29978,28.81583h0a98.69645,98.69645,0,0,0,3.53677-23.65048,42.663,42.663,0,0,0,11.763-5.16535Z" class="cls-118" transform="translate(71.43508 -43.49924)"/><path d="M599.87488,473.3906s.80485-39.82175-30.91324-57.79646c0,0-19.791.5973-17.79173-13.75627s22.6323-1.6731,23.27462,5.18865c-.55307,2.93434,50.55415,43.603,28.01481,75.28054Z" class="cls-114" transform="translate(71.43508 -43.49924)"/><path d="M585.14064,623.26118c-.15123.91242-.30246,1.82485-.45377,2.76194-16.33288,6.62993-37.04049,8.285-37.04049,8.285-2.29185,34.61025-30.902,31.10557-30.902,31.10557l.00627-1.80121c31.33916-.7545,29.0564-32.54313,29.0564-32.54313a117.687,117.687,0,0,0,39.33358-7.80821Z" class="cls-117" transform="translate(71.43508 -43.49924)"/><path d="M555.98436,486.04383h0a10.91491,10.91491,0,0,0-10.91918,10.8434l-.06512,18.703a10.91492,10.91492,0,0,0,10.84342,10.91916h0A10.899,10.899,0,0,0,566.76266,515.666l.06512-18.703a10.899,10.899,0,0,0-10.84342-10.91916Z" class="cls-119" transform="translate(71.43508 -43.49924)"/><path d="M546.14222,492.27686a10.7352,10.7352,0,0,0-1.077,4.61037l-.06512,18.703a10.91492,10.91492,0,0,0,10.84342,10.91916h0a10.82677,10.82677,0,0,0,4.64234-1.02015,10.71714,10.71714,0,0,0,1.05237-4.61045l.06512-18.703a10.915,10.915,0,0,0-10.8434-10.91918h0a10.63636,10.63636,0,0,0-4.61769,1.02026Z" class="cls-120" transform="translate(71.43508 -43.49924)"/><path d="M436.1978,646.8002a23.68886,23.68886,0,0,0-.67531,2.61314l-.0754.3945c-4.0133-2.48139-13.648-6.21611-36.12244-7.35536a4.55351,4.55351,0,0,1,.10067-.56714s.37459-1.28179.999-3.451c10.486.18456,26.19842,1.67038,35.77348,8.36581Z" class="cls-117" transform="translate(71.43508 -43.49924)"/><path d="M431.96883,472.38655c-5.26341,2.227-14.23686,7.00731-14.25309,11.67073,0,0-6.65288,46.957,14.0973,47.25128l.02468.00009c-4.77609-17.264-4.23855-37.00174-.39529-56.5552q.22632-1.22059.5264-2.3669Z" class="cls-116" transform="translate(71.43508 -43.49924)"/><path d="M416.71429,502.3869c.29947,13.20186,3.20625,28.75688,15.09875,28.92166l.02468.00009A99.95127,99.95127,0,0,1,428.441,507.634a43.0033,43.0033,0,0,1-11.72675-5.24713Z" class="cls-118" transform="translate(71.43508 -43.49924)"/><path d="M434.92827,472.81633s-.50287-39.8263,31.31492-57.57981c0,0,19.811.73518,17.91177-13.632-1.92393-14.36721-22.64478-1.83074-23.31018,5.02646.53262,2.93812-50.85654,43.25-28.563,75.08356Z" class="cls-114" transform="translate(71.43508 -43.49924)"/><path d="M448.64331,622.786c.12017.91336.265,1.82683.4345,2.765,16.28633,6.7435,36.98192,8.54275,36.98192,8.54275,2.05078,34.62537,30.68466,31.32,30.68466,31.32l.00627-1.80121c-31.33315-.9727-28.82912-32.74466-28.82912-32.74466a117.4868,117.4868,0,0,1-39.27823-8.0819Z" class="cls-117" transform="translate(71.43508 -43.49924)"/><path d="M449.34391,627.08176c6.55569,37.65132,26.45514,90.94336,67.21922,90.39439,40.73459.83271,61.00464-52.31947,67.847-89.92415-6.66851,16.01512-28.38591,59.66264-67.74244,59.89571-39.354-.5071-60.79162-44.30486-67.32377-60.36595Z" class="cls-113" transform="translate(71.43508 -43.49924)"/><path d="M516.94231,608.56451a24.90869,24.90869,0,1,1-25.00765,24.83412,24.915,24.915,0,0,1,25.00765-24.83412Z" class="cls-118" transform="translate(71.43508 -43.49924)"/><path d="M516.94231,608.56451a24.908,24.908,0,0,1,24.33339,19.997,24.92438,24.92438,0,0,1-48.83012-.17,24.935,24.935,0,0,1,24.49673-19.827Z" class="cls-121" transform="translate(71.43508 -43.49924)"/><path d="M478.72962,485.77486h0A10.899,10.899,0,0,1,489.573,496.694l-.06512,18.703a10.899,10.899,0,0,1-10.91918,10.8434h0a10.91492,10.91492,0,0,1-10.8434-10.91916l.06512-18.703a10.91492,10.91492,0,0,1,10.91916-10.8434Z" class="cls-119" transform="translate(71.43508 -43.49924)"/><path d="M488.5528,492.07636A10.71749,10.71749,0,0,1,489.573,496.694l-.06512,18.703a10.899,10.899,0,0,1-10.91918,10.8434h0a10.7171,10.7171,0,0,1-4.61045-1.05237,10.71726,10.71726,0,0,1-1.02025-4.61767l.06512-18.703A10.899,10.899,0,0,1,483.94234,491.024h0a10.7173,10.7173,0,0,1,4.61046,1.05239Z" class="cls-120" transform="translate(71.43508 -43.49924)"/><path d="M491.643,433.68272c3.8203,8.30392,9.73749,16.73849,18.22238,17.63164l7.62432.02655,7.59962.02646c8.51558-.834,14.49134-9.22714,18.36938-17.50425a147.32762,147.32762,0,0,0-25.89229-4.55621,146.96215,146.96215,0,0,0-25.92341,4.37581Z" class="cls-118" transform="translate(71.43508 -43.49924)"/><g class="cls-122"><path d="M629.97249,262.77677l-8.81717-.0307-24.33489-.08472-13.41613-.04671-1.27743-.00445-29.11227-.10135-1.58514-.00552-29.17654-.10158-39.64569-.138.01127.02326c-.17842-.00924-.35616-.02446-.53588-.02509l-9.33293-.03249-21.39785-.0745-28.77557-.10018-2.9477-.01026-43.62237-.15187,9.04358,19.02917L369.8666,332.39807l23.92.08328,21.28436.0741,31.78254.11065.01212-.04174q.48405.04348.97465.04518l28.62737.09967,2.1034.00732,17.84049.06211,9.34809.03255,10.35371.036,16.09271.056,13.08321.04555,16.0284.0558,15.94644.05552,5.31838.01852,6.26546.02181,20.316.07073,37.40736.13024,9.30862-70.49447Z" class="cls-123" transform="translate(71.43508 -43.49924)"/><polygon points="476.853 232.528 465.42 271.22 469.307 271.233 470.67 266.716 480.102 266.749 476.012 280.517 453.21 280.438 465.376 239.188 462.186 232.477 476.853 232.528" class="cls-124"/><polygon points="505.789 241.889 503.043 241.88 491.775 248.105 496.338 232.595 521.939 232.684 498.224 271.334 501.074 271.344 512.342 265.173 507.779 280.628 482.178 280.539 505.789 241.889" class="cls-124"/><path d="M456.61921,276.20548l22.80267.07939a1.10327,1.10327,0,0,1,.6983.27483,3.08033,3.08033,0,0,1,.61985.71,3.79177,3.79177,0,0,1,.43688.92739,2.92475,2.92475,0,0,1,.15271.87277.76192.76192,0,0,1-.053.38087l-13.216,44.78718-22.8027-.07939a1.10178,1.10178,0,0,1-.69831-.27483,3.01511,3.01511,0,0,1-.61985-.71064,3.93551,3.93551,0,0,1-.437-.90025,2.80808,2.80808,0,0,1-.15262-.89927.75256.75256,0,0,1,.05305-.38087Zm-2.00053,38.72471,6.73708.02346,8.70538-29.44114-6.73709-.02345Z" class="cls-124" transform="translate(71.43508 -43.49924)"/><path d="M497.85884,324.34145l-9.48363-.033,12.16647-41.2496-3.18918-6.71175,14.66585.05106.76018,19.99517,13.3363-19.94609,9.74274.03392-14.15951,47.9433-9.43191-.03284,5.97831-20.18906-5.10669,7.98985c-.00013.03709-.052.09128-.1557.16316a.60093.60093,0,0,0-.20819.21663c-.20818.21735-.34746.372-.41585.46185a5.60414,5.60414,0,0,1-.52071.51582l-7.48538,6.45651-.15417-15.3086-.308-.8176Z" class="cls-125" transform="translate(71.43508 -43.49924)"/><polygon points="632.379 246.797 622.947 246.764 624.259 242.302 620.372 242.288 617.487 252.084 629.615 252.126 618.595 261.348 614.76 261.335 611.666 271.729 615.553 271.743 616.916 267.226 626.348 267.258 622.258 281.026 599.456 280.947 611.623 239.697 608.433 232.986 636.418 233.083 632.379 246.797" class="cls-125"/><path d="M594.15922,276.6838a1.10989,1.10989,0,0,1,.69892.27484,3.09878,3.09878,0,0,1,.6192.71064,3.76693,3.76693,0,0,1,.43688.92743,2.91952,2.91952,0,0,1,.15274.87273.76256.76256,0,0,1-.053.38092l-12.27185,41.631a2.76676,2.76676,0,0,1-.54731.92332,8.01378,8.01378,0,0,1-1.01434,1.03237,8.36666,8.36666,0,0,1-1.16877.83965,2.092,2.092,0,0,1-1.012.35039l-22.8027-.07938,12.16647-41.249-3.18914-6.71236Zm-16.0461,9.205L569.4077,315.33l6.6854.02327,8.706-29.44118Z" class="cls-125" transform="translate(71.43508 -43.49924)"/><polygon points="684.25 233.25 670.091 281.193 660.607 281.16 672.774 239.91 669.584 233.199 684.25 233.25" class="cls-125"/><polygon points="696.687 233.293 712.39 233.348 706.056 281.318 695.795 281.283 696.278 276.654 689.632 265.082 698.235 265.112 700.838 246.927 700.894 245.565 693.007 263.296 686.062 263.272 689.976 270.368 684.964 281.245 674.702 281.209 696.687 233.293" class="cls-125"/><polygon points="517.76 259.162 532.277 261.898 526.318 281.557 537.666 258.107 517.76 259.162" class="cls-126"/><path d="M454.88072,325.43116a.34352.34352,0,0,1-.13356-.02829.381.381,0,0,1-.2046-.4607l5.83574-19.25175L446.2625,303.03a.37058.37058,0,0,1-.29307-.392.36563.36563,0,0,1,.33792-.35076l19.90559-1.05479a.35258.35258,0,0,1,.31717.17012.39351.39351,0,0,1,.01887.37388L455.2005,325.22613a.355.355,0,0,1-.31978.205m-5.42528-22.56044,11.44847,2.15742a.35921.35921,0,0,1,.2428.17516.39412.39412,0,0,1,.03422.30767l-4.627,15.26538,9.07995-18.76259Z" class="cls-123" transform="translate(71.43508 -43.49924)"/><polygon points="542.726 229.979 533.728 254.471 527.552 254.696 542.726 229.979" class="cls-126"/><path d="M456.11617,298.57036a.35381.35381,0,0,1-.3089-.19.39322.39322,0,0,1,.01082-.38835L470.992,273.27446a.34638.34638,0,0,1,.46076-.13031.38226.38226,0,0,1,.17051.46855l-8.99776,24.4932a.35782.35782,0,0,1-.32052.23945l-6.1755.22441a.08574.08574,0,0,1-.01328.0006m13.59133-21.82151-12.92024,21.04773,5.258-.19176Z" class="cls-123" transform="translate(71.43508 -43.49924)"/></g></g></g></svg>